<?xml version="1.0" standalone="no"?>
<!DOCTYPE svg PUBLIC "-//W3C//DTD SVG 20010904//EN"
 "http://www.w3.org/TR/2001/REC-SVG-20010904/DTD/svg10.dtd">
<svg version="1.0" xmlns="http://www.w3.org/2000/svg"
 width="224.000000pt" height="225.000000pt" viewBox="0 0 224.000000 225.000000"
 preserveAspectRatio="xMidYMid meet">

<g transform="translate(0.000000,225.000000) scale(0.100000,-0.100000)"
fill="#000000" stroke="none">
<path d="M0 1125 l0 -1125 1120 0 1120 0 0 1125 0 1125 -1120 0 -1120 0 0
-1125z m1221 731 c217 -39 408 -216 475 -441 36 -123 20 -296 -40 -413 l-22
-43 -43 46 -43 47 -71 -26 c-39 -14 -72 -24 -75 -22 -2 3 0 55 5 116 8 102 7
113 -9 121 -24 13 -23 34 4 77 20 33 20 36 4 47 -10 7 -17 17 -16 22 1 4 -9
11 -22 15 -16 4 -18 6 -5 7 24 1 21 20 -5 31 -18 7 -19 9 -5 9 10 1 17 9 17
20 0 11 5 23 10 26 10 6 14 65 4 65 -3 0 -14 -5 -25 -11 -17 -9 -19 -17 -14
-50 6 -33 4 -39 -10 -39 -11 0 -15 -5 -11 -15 3 -8 -2 -19 -12 -24 -13 -8 -17
-27 -19 -98 -4 -119 -16 -213 -28 -215 -5 -1 -23 22 -38 50 -16 29 -35 52 -43
52 -8 0 -14 4 -14 9 0 5 -15 12 -32 15 l-33 7 22 18 22 18 -50 23 c-51 24 -65
50 -26 50 36 0 47 14 49 59 1 23 5 44 10 47 4 3 1 12 -7 21 -13 12 -18 13 -31
2 -11 -9 -18 -9 -26 -1 -17 17 3 108 22 103 35 -8 45 -5 48 17 2 12 -2 22 -8
22 -6 0 -8 5 -5 10 12 19 -42 28 -121 21 -96 -8 -134 -30 -154 -90 -11 -35
-11 -49 3 -103 15 -57 16 -116 2 -138 -3 -4 5 -11 18 -16 18 -6 15 -8 -20 -11
l-43 -4 25 -37 c13 -20 23 -37 21 -39 -2 -2 -23 17 -48 42 -25 25 -50 45 -56
45 -7 0 -19 -14 -27 -31 -15 -28 -19 -30 -58 -24 -28 3 -48 1 -60 -8 -16 -13
-16 -21 8 -137 14 -68 25 -124 25 -126 0 -2 -12 -4 -26 -4 -70 0 -119 274 -78
434 60 234 265 421 499 455 85 12 101 12 186 -3z m-233 -540 c1 -2 -8 -11 -20
-22 -12 -10 -18 -13 -14 -6 5 9 -2 25 -20 44 l-29 30 40 -22 c22 -12 41 -23
43 -24z m56 -118 c33 -53 76 -133 76 -142 0 -3 -27 23 -59 58 -33 35 -63 61
-66 58 -4 -4 -5 0 -3 8 2 8 -11 21 -29 31 l-33 16 33 11 c17 5 35 10 40 11 4
1 22 -23 41 -51z m116 12 c44 -22 52 -35 18 -27 -22 6 -22 6 -4 -8 11 -8 23
-15 28 -15 4 0 8 -22 8 -50 0 -52 -13 -67 -24 -27 -3 12 -21 48 -41 81 -47 78
-47 77 15 46z m225 10 c3 -6 -1 -7 -9 -4 -18 7 -21 14 -7 14 6 0 13 -4 16 -10z
m-685 -9 c0 -15 -16 -22 -34 -15 -25 9 -19 24 9 24 14 0 25 -4 25 -9z m130
-61 c24 -34 14 -38 -35 -14 l-30 14 30 -6 30 -6 -30 33 c-24 25 -26 29 -8 20
12 -6 31 -24 43 -41z m-10 -39 c24 -7 23 -8 -15 -20 -22 -8 -47 -19 -55 -25
-8 -5 -4 3 10 18 14 16 20 26 13 22 -6 -3 -14 -2 -18 4 -7 11 27 12 65 1z m62
-42 c-25 -9 -112 -19 -112 -12 0 10 49 22 90 22 38 0 41 -2 22 -10z m126 -18
c24 -6 24 -6 -7 -29 -17 -12 -28 -16 -25 -9 4 10 -4 13 -28 10 -27 -3 -29 -1
-13 6 16 8 11 10 -25 11 -35 1 -40 3 -25 10 23 10 90 11 123 1z m119 -56 c54
-24 93 -57 92 -80 0 -5 -11 3 -24 18 -28 31 -32 24 -12 -19 12 -28 15 -29 82
-29 62 0 70 -2 74 -20 3 -19 3 -19 -16 -2 -30 27 -43 21 -44 -20 0 -21 -2 -48
-3 -61 -2 -13 4 -27 13 -32 12 -7 3 -9 -29 -9 -40 0 -42 2 -22 11 19 10 22 19
22 70 0 50 -3 58 -19 58 -10 0 -24 -7 -31 -15 -11 -13 -16 -8 -35 34 -19 40
-45 74 -45 58 0 -18 24 -67 33 -67 7 0 7 -4 -1 -12 -7 -7 -12 -33 -12 -59 0
-60 -19 -81 -69 -77 l-36 3 -3 60 c-2 42 -8 64 -19 73 -14 10 -11 12 23 12 24
0 34 -3 26 -9 -9 -5 -12 -26 -10 -67 3 -55 5 -59 29 -62 35 -4 46 13 50 76 3
41 1 52 -11 52 -10 0 -11 3 -4 8 7 4 8 15 3 28 -14 38 -27 36 -24 -3 1 -21 0
-25 -2 -10 -3 19 -17 35 -44 52 -37 24 -48 43 -32 58 12 13 42 7 100 -18z
m273 -20 c-25 -13 -49 -24 -55 -24 -5 0 10 11 35 24 25 13 50 24 55 24 6 0
-10 -11 -35 -24z m-836 -32 c19 -23 19 -23 -2 -23 -17 0 -22 6 -22 27 0 14 1
24 3 22 1 -2 11 -14 21 -26z m372 12 c18 -13 16 -14 -26 -15 -25 0 -83 -7
-130 -15 -125 -22 -129 -17 -10 15 126 33 140 34 166 15z m760 -20 c-3 -8 -12
-15 -21 -15 -14 0 -13 3 2 26 17 26 30 18 19 -11z m-1128 -121 c-4 -63 -4 -64
22 -64 65 1 95 80 43 112 -23 14 -25 18 -9 18 52 0 76 -80 36 -120 -16 -16
-32 -20 -82 -19 -35 1 -55 3 -45 6 14 4 17 16 17 64 0 33 -4 59 -10 59 -5 0
-10 4 -10 9 0 5 9 7 21 4 19 -5 21 -11 17 -69z m205 68 c-13 -8 -20 -112 -9
-131 5 -7 -3 -11 -24 -11 -19 0 -29 4 -25 10 4 6 11 8 16 5 5 -4 9 20 9 54 0
34 -4 61 -10 61 -5 0 -10 3 -10 8 0 4 15 8 33 9 18 1 27 -1 20 -5z m99 -53
c26 -57 28 -89 6 -89 -6 0 -8 6 -5 14 3 8 1 16 -4 18 -5 2 -12 18 -14 36 -2
18 -9 40 -14 50 -8 13 -10 2 -11 -45 0 -40 4 -63 13 -66 6 -3 -1 -6 -18 -6
-22 -1 -26 2 -17 11 16 16 16 125 0 131 -7 3 -2 6 12 6 22 1 29 -8 52 -60z
m110 52 c-10 -6 -13 -27 -10 -75 l3 -66 -28 0 c-17 0 -26 4 -22 10 4 6 11 8
16 5 5 -4 9 20 8 56 l-2 63 -23 -45 c-29 -56 -31 -44 -2 16 18 36 27 45 47 45
18 0 22 -3 13 -9z m428 -12 c-17 -31 -5 -47 37 -52 l38 -4 -42 -1 c-38 -2 -43
-5 -43 -25 0 -13 5 -28 12 -35 9 -9 3 -12 -27 -11 -22 0 -34 3 -27 6 6 2 12
11 12 19 0 8 5 14 10 14 6 0 10 22 10 49 0 39 -4 51 -17 54 -10 3 -3 5 15 6
30 1 32 -1 22 -20z m113 13 c-18 -11 -20 -121 -2 -133 10 -6 2 -9 -25 -9 -36
0 -38 1 -24 18 21 24 21 120 -1 125 -9 3 2 5 24 6 22 0 35 -3 28 -7z m90 1
c-8 -3 -13 -26 -13 -63 0 -55 2 -59 28 -68 23 -9 24 -11 5 -11 -46 -2 -53 8
-53 74 0 52 -3 64 -17 68 -10 3 0 5 22 5 22 0 34 -2 28 -5z m85 -13 c-9 -13
-14 -16 -17 -8 -2 7 -9 16 -15 20 -6 4 1 8 17 8 25 0 26 -2 15 -20z m-25 -109
c-10 -9 -12 -10 -5 -1 6 7 13 30 14 50 l1 35 4 -34 c3 -24 -1 -39 -14 -50z
m-1103 -71 c0 -16 -4 -30 -10 -30 -5 0 -10 14 -10 30 0 17 5 30 10 30 6 0 10
-13 10 -30z m80 0 c0 -16 -4 -30 -9 -30 -5 0 -11 14 -13 30 -3 20 0 30 9 30 8
0 13 -12 13 -30z m46 19 c3 -6 1 -15 -6 -19 -9 -6 -8 -10 6 -19 11 -6 15 -10
9 -10 -5 0 -19 6 -29 14 -12 9 -15 15 -7 15 8 0 11 6 7 15 -6 17 9 20 20 4z
m97 -19 c27 -45 8 -38 -32 13 -11 14 -11 17 1 17 7 0 22 -13 31 -30z m69 0 c3
-17 0 -30 -6 -30 -6 0 -11 14 -11 30 0 17 3 30 6 30 4 0 9 -13 11 -30z m63 13
c16 -16 16 -17 -1 -30 -25 -18 -42 -16 -18 2 19 15 19 15 0 30 -11 8 -15 15
-9 15 7 0 19 -8 28 -17z m55 -13 c0 -16 -4 -30 -10 -30 -5 0 -10 14 -10 30 0
17 5 30 10 30 6 0 10 -13 10 -30z m132 5 c-3 -16 0 -25 9 -25 7 0 10 -2 7 -5
-3 -3 -13 -3 -22 1 -19 7 -22 40 -3 47 6 3 13 6 13 6 1 1 -1 -10 -4 -24z m58
15 c0 -5 -2 -10 -4 -10 -3 0 -8 5 -11 10 -3 6 -1 10 4 10 6 0 11 -4 11 -10z
m50 -20 c0 -16 -4 -30 -9 -30 -5 0 -11 14 -13 30 -3 20 0 30 9 30 8 0 13 -12
13 -30z m120 10 c21 -15 30 -17 33 -8 3 7 6 3 6 -10 l1 -24 -37 23 c-49 29
-60 39 -44 39 7 0 26 -9 41 -20z m112 -10 c3 -17 0 -30 -6 -30 -6 0 -11 14
-11 30 0 17 3 30 6 30 4 0 9 -13 11 -30z m83 0 c0 -16 -4 -30 -10 -30 -5 0
-10 14 -10 30 0 17 5 30 10 30 6 0 11 -13 10 -30z m52 24 c-3 -3 -12 -4 -19
-1 -8 3 -5 6 6 6 11 1 17 -2 13 -5z m48 -24 c1 -16 -4 -30 -10 -30 -5 0 -10
14 -10 30 0 17 5 30 10 30 6 0 10 -13 10 -30z m50 21 c3 -5 1 -13 -5 -16 -8
-5 -7 -11 1 -21 7 -8 7 -14 1 -14 -17 0 -34 27 -22 35 6 3 8 11 5 16 -4 5 -2
9 4 9 5 0 12 -4 16 -9z m-430 -21 c3 -5 1 -10 -4 -10 -6 0 -11 5 -11 10 0 6 2
10 4 10 3 0 8 -4 11 -10z m52 -22 c-3 -8 -6 -5 -6 6 -1 11 2 17 5 13 3 -3 4
-12 1 -19z m-172 -58 c-4 -11 -2 -20 4 -20 6 0 11 5 11 12 0 6 3 8 6 5 4 -4 2
-13 -5 -21 -9 -11 -9 -15 1 -19 7 -3 2 -6 -11 -6 -13 -1 -21 2 -18 6 4 3 2 12
-4 19 -13 16 -5 44 11 44 7 0 9 -8 5 -20z m-535 0 c0 -5 -4 -10 -10 -10 -5 0
-10 5 -10 10 0 6 5 10 10 10 6 0 10 -4 10 -10z m1065 0 c3 -5 -1 -10 -10 -10
-9 0 -13 5 -10 10 3 6 8 10 10 10 2 0 7 -4 10 -10z m-722 -7 c-57 -2 -149 -2
-205 0 -57 1 -11 3 102 3 113 0 159 -2 103 -3z m560 0 c-57 -2 -149 -2 -205 0
-57 1 -11 3 102 3 113 0 159 -2 103 -3z m-399 -28 c3 -8 1 -15 -4 -15 -6 0
-10 7 -10 15 0 8 2 15 4 15 2 0 6 -7 10 -15z m-504 -15 c0 -5 -4 -10 -10 -10
-5 0 -10 5 -10 10 0 6 5 10 10 10 6 0 10 -4 10 -10z m90 2 c0 -10 -36 -9 -46
1 -4 4 5 7 19 7 15 0 27 -4 27 -8z m47 -3 c-14 -8 -22 -8 -30 0 -8 8 -3 11 19
11 25 -1 27 -2 11 -11z m199 4 c-10 -10 -152 -12 -167 -2 -7 4 29 8 81 8 51 0
90 -2 86 -6z m104 -4 c0 -5 -20 -7 -45 -6 -25 1 -45 5 -45 10 0 4 20 6 45 5
25 0 45 -5 45 -9z m620 1 c0 -5 -5 -10 -11 -10 -5 0 -7 5 -4 10 3 6 8 10 11
10 2 0 4 -4 4 -10z m-157 -7 c-57 -2 -149 -2 -205 0 -57 1 -11 3 102 3 113 0
159 -2 103 -3z m-941 -53 c-4 -29 -3 -30 33 -30 33 0 36 2 29 23 -4 12 -12 25
-18 29 -6 4 4 8 23 8 28 0 32 -2 21 -15 -7 -8 -11 -35 -8 -65 3 -45 1 -50 -17
-50 -11 0 -15 4 -10 8 6 4 11 17 12 30 2 19 -2 22 -32 22 -32 0 -35 -2 -35
-30 0 -25 -4 -30 -22 -29 -13 0 -17 3 -10 6 16 6 16 95 0 111 -9 9 -6 12 13
12 23 0 25 -3 21 -30z m198 -17 c11 -27 25 -56 30 -65 8 -15 6 -18 -11 -18
-11 0 -18 4 -15 8 9 15 -10 32 -37 34 -30 3 -31 6 -17 28 8 13 10 12 10 -2 0
-19 15 -24 24 -9 8 12 -4 42 -14 36 -10 -6 -21 21 -13 29 14 14 25 3 43 -41z
m151 37 c23 -13 25 -48 4 -56 -13 -5 -12 -11 6 -35 27 -38 10 -38 -24 0 l-26
29 22 15 c19 12 20 17 8 31 -7 9 -20 16 -28 16 -12 0 -14 -12 -11 -60 3 -58 2
-60 -22 -59 -14 0 -19 3 -12 6 16 6 16 95 0 111 -9 9 -4 12 26 12 20 0 46 -5
57 -10z m174 -15 c28 -27 30 -37 14 -68 -14 -26 -28 -37 -49 -37 -11 1 -11 3
3 11 50 29 31 108 -26 109 -17 0 -18 -7 -15 -60 3 -58 2 -60 -22 -59 -14 0
-19 3 -12 6 16 6 16 95 0 111 -9 9 -1 12 35 12 38 0 53 -5 72 -25z m80 15
c-10 -16 17 -82 28 -67 5 7 6 2 2 -13 -10 -35 -25 -49 -25 -23 0 12 -5 25 -10
28 -6 4 -8 10 -5 15 3 5 0 12 -6 15 -5 4 -8 13 -5 21 3 7 -3 18 -12 23 -14 9
-12 10 11 11 16 0 26 -4 22 -10z m79 4 c-13 -5 3 -74 17 -74 10 0 22 57 14 70
-3 5 3 10 14 10 17 0 19 -3 11 -17 -5 -10 -19 -40 -29 -68 -11 -27 -20 -42
-20 -32 -1 9 -6 17 -12 17 -5 0 -7 4 -4 10 3 5 1 19 -6 31 -9 17 -13 19 -20 8
-6 -9 -9 -10 -9 -2 0 6 5 15 12 19 7 5 5 11 -7 21 -17 12 -16 13 16 12 19 0
29 -3 23 -5z m168 -59 c25 -63 25 -65 7 -65 -11 0 -18 4 -14 10 3 5 1 17 -4
27 -5 10 -12 26 -15 36 -3 10 -10 15 -16 12 -8 -5 -8 17 -1 43 1 1 5 2 9 2 5
0 20 -29 34 -65z m146 53 c17 -17 15 -48 -4 -55 -13 -5 -10 -11 12 -34 34 -36
14 -39 -24 -4 -15 14 -30 25 -34 25 -13 0 -9 -38 5 -43 6 -3 1 -6 -14 -6 -25
-1 -25 0 -19 55 5 44 3 57 -9 64 -11 7 -3 9 30 10 25 0 50 -5 57 -12z m160 -8
c4 -12 2 -13 -9 -2 -7 6 -24 12 -37 12 -23 0 -24 -2 -20 -60 2 -50 0 -60 -13
-60 -14 0 -16 8 -12 50 3 33 0 56 -8 66 -11 13 -6 15 41 12 37 -2 55 -8 58
-18z m-18 -45 c0 -22 -2 -24 -19 -13 -18 11 -18 13 -3 25 22 16 22 17 22 -12z
m-325 -18 c6 -5 3 -7 -7 -3 -17 5 -24 -9 -19 -36 0 -5 -5 -8 -13 -8 -11 0 -11
6 2 35 9 19 18 31 21 27 4 -4 11 -11 16 -15z m-671 -32 c3 -9 0 -15 -9 -15 -9
0 -12 6 -9 15 4 8 7 15 9 15 2 0 5 -7 9 -15z m1020 0 c-4 -8 -16 -14 -28 -14
-16 1 -17 2 -3 6 9 2 17 9 17 14 0 5 4 9 10 9 5 0 7 -7 4 -15z"/>
<path d="M1070 1505 c0 -17 5 -25 13 -22 6 2 12 12 12 22 0 10 -6 20 -12 23
-8 2 -13 -6 -13 -23z"/>
<path d="M1120 1513 c0 -5 5 -15 10 -23 8 -12 10 -11 10 8 0 12 -4 22 -10 22
-5 0 -10 -3 -10 -7z"/>
<path d="M1500 491 c0 -31 13 -39 38 -22 21 13 10 46 -16 49 -19 3 -22 -1 -22
-27z"/>
</g>
</svg>
